# Farinella CubeSat model - DART team
# 2025 10 20
v -0.000770 0.127211 0.370220
v -0.000770 0.127211 0.004320
v -0.000770 -0.000960 0.370220
v -0.000770 -0.000960 0.004320
v 0.244030 0.127211 0.370220
v 0.244030 0.127211 0.004320
v 0.244030 -0.000960 0.370220
v 0.244030 -0.000960 0.004320

v 0.121630 -0.100960 0.357020
v 0.121630 -0.100960 0.017520
v 0.121630 -0.707118 0.357020
v 0.121630 -0.707118 0.017520
v 0.121630 0.833369 0.357020
v 0.121630 0.833369 0.017520
v 0.121630 0.227211 0.357020
v 0.121630 0.227211 0.017520
v 0.121630 0.127211 0.017520
v 0.121630 0.127211 0.357020
v 0.121630 -0.000960 0.017520
v 0.121630 -0.000960 0.357020


v 0.242227 0.129014 0.302920
v 0.245833 0.125408 0.302920
v 0.245833 0.125408 0.297820
v 0.242227 0.129014 0.297820
v 1.149557 1.036747 0.302920
v 1.153163 1.033141 0.302920
v 1.153163 1.033141 0.297820
v 1.149557 1.036747 0.297820
v -0.002573 0.125408 0.302920
v 0.001033 0.129014 0.302920
v 0.001033 0.129014 0.297820
v -0.002573 0.125408 0.297820
v -0.909903 1.033141 0.302920
v -0.906297 1.036747 0.302920
v -0.906297 1.036747 0.297820
v -0.909903 1.033141 0.297820
v 0.001033 -0.002763 0.302920
v -0.002573 0.000843 0.302920
v -0.002573 0.000843 0.297820
v 0.001033 -0.002763 0.297820
v -0.906297 -0.910093 0.302920
v -0.909903 -0.906487 0.302920
v -0.909903 -0.906487 0.297820
v -0.906297 -0.910093 0.297820
v 0.245833 0.000843 0.302920
v 0.242227 -0.002763 0.302920
v 0.242227 -0.002763 0.297820
v 0.245833 0.000843 0.297820
v 1.153163 -0.906487 0.302920
v 1.149557 -0.910093 0.302920
v 1.149557 -0.910093 0.297820
v 1.153163 -0.906487 0.297820

f 4 1 2
f 4 3 1
f 6 7 8
f 6 5 7
f 1 5 2
f 5 6 2
f 3 4 7
f 7 4 8
f 1 3 7
f 7 5 1
f 8 4 2
f 2 6 8
f 9 11 10
f 11 12 10
f 13 15 14
f 15 16 14
f 20 9 19
f 9 10 19
f 15 18 16
f 18 17 16
f 25 26 27
f 25 27 28
f 21 22 26
f 21 26 25
f 22 23 27
f 22 27 26
f 23 24 28
f 23 28 27
f 24 21 25
f 24 25 28
f 33 34 35
f 33 35 36
f 29 30 34
f 29 34 33
f 30 31 35
f 30 35 34
f 31 32 36
f 31 36 35
f 32 29 33
f 32 33 36
f 41 42 43
f 41 43 44
f 37 38 42
f 37 42 41
f 38 39 43
f 38 43 42
f 39 40 44
f 39 44 43
f 40 37 41
f 40 41 44
f 49 50 51
f 49 51 52
f 45 46 50
f 45 50 49
f 46 47 51
f 46 51 50
f 47 48 52
f 47 52 51
f 48 45 49
f 48 49 52
